Coordinates
version=1
nRows=11
nColumns=36
inDegrees=yes

Units are S.I. units (second, meters, Newtons, ...)
If the header above contains a line with 'inDegrees', this indicates whether rotational values are in degrees (yes) or radians (no).

endheader
time	pelvis_tilt	pelvis_list	pelvis_rotation	pelvis_tx	pelvis_ty	pelvis_tz	hip_flexion_r	hip_adduction_r	hip_rotation_r	knee_angle_r	knee_angle_r_beta	ankle_angle_r	subtalar_angle_r	mtp_angle_r	hip_flexion_l	hip_adduction_l	hip_rotation_l	knee_angle_l	knee_angle_l_beta	ankle_angle_l	subtalar_angle_l	mtp_angle_l	lumbar_extension	lumbar_bending	lumbar_rotation	arm_flex_r	arm_add_r	arm_rot_r	elbow_flex_r	pro_sup_r	arm_flex_l	arm_add_l	arm_rot_l	elbow_flex_l	pro_sup_l
      2.46666670	     -4.68217697	      1.31128055	      1.53290072	     -0.06629304	      0.83763555	      0.14013348	     11.93071268	     -6.67418246	     -9.08796070	     19.02944566	      0.33212648	      9.48986120	    -12.68710029	     -7.49999987	      8.51877265	     -5.89213606	     -9.78814983	     13.57440059	      0.23691798	      6.08525235	     -7.54977022	     -7.49999987	     -7.04422696	     -0.11044362	      5.55212304	     89.59414469	     -0.01293983	     67.80382168	    112.16893106	    106.24424300	     78.14328298	     16.50715468	     60.89605347	    138.98580026	     96.46648582
      2.48333330	     -4.48492916	      1.38102090	      1.61304007	     -0.07031440	      0.83526872	      0.13962102	     13.57498587	     -7.07035848	     -8.76605813	     21.95255518	      0.38314437	      9.66273875	    -13.71762385	     -7.49999987	     10.36058692	     -6.13328700	     -9.33660393	     16.83486342	      0.29382380	      6.65022255	     -8.74889717	     -7.49999987	     -8.02535730	     -0.11645600	      5.22556947	     90.32057298	      0.47446587	     68.44467604	    111.56425413	    105.44719598	     78.95918621	     16.49918901	     61.69686282	    139.66183287	     96.15926890
      2.50000000	     -4.30116630	      1.46702939	      1.87867063	     -0.07232026	      0.82948305	      0.13938690	     15.26439171	     -7.51712067	     -8.52933198	     25.09426906	      0.43797762	     10.49821063	    -14.49869087	     -7.49999987	     12.42154906	     -6.40699311	     -8.92779910	     20.55514008	      0.35875487	      7.78841147	     -9.68797409	     -7.49999987	     -9.09141961	     -0.15459135	      5.18156426	     91.36241556	      0.43815234	     68.58824146	    111.38590913	    105.52631177	     80.15191219	     16.86212841	     62.59050090	    139.76155209	     96.46515428
      2.51666670	     -3.67092196	      1.57816114	      1.74397734	     -0.07330395	      0.82260573	      0.14009944	     16.74271278	     -7.96095044	     -8.01725849	     28.51790156	      0.49773128	     11.81180616	    -15.30704789	     -7.49999987	     13.94297371	     -6.73606079	     -8.60390510	     24.40402602	      0.42593060	      9.38199954	    -10.69670796	     -7.49999987	    -10.81451123	     -0.29656298	      5.41609582	     92.85436042	      0.43677462	     68.03138164	    110.68359459	    105.54394612	     81.65026113	     17.08872933	     62.52091939	    139.61672343	     96.54484391
      2.53333330	     -3.73296871	      1.63378443	      1.74988016	     -0.07696074	      0.81969291	      0.13957579	     19.11768936	     -8.37939343	     -7.49680091	     32.15064208	      0.56113456	     13.32400048	    -15.49280952	     -7.49999987	     16.46431388	     -7.11548185	     -8.25674417	     28.53156139	      0.49796969	     10.93273385	    -11.36302086	     -7.49999987	    -11.51817816	     -0.34317965	      5.37468181	     93.76664988	      0.44882420	     68.26802002	    111.61193158	    106.10714976	     82.87133604	     17.32958379	     63.09823132	    139.65915139	     97.43719169
      2.55000000	     -3.35139260	      1.71837359	      1.72969887	     -0.07863865	      0.81678748	      0.14018763	     20.67115949	     -8.83905783	     -7.31219404	     35.46968909	      0.61906286	     15.07691076	    -15.28682614	     -7.49999987	     18.30289570	     -7.50739658	     -8.18304791	     32.22095513	      0.56236176	     12.44481965	    -11.74800302	     -7.49999987	    -12.76883884	     -0.44030335	      5.04847249	     94.65408971	      0.61901688	     68.40642425	    112.00980461	    105.15065919	     83.78043458	     17.10488315	     63.67188778	    139.74651010	     96.56969731
      2.56666670	     -2.81598123	      1.79407653	      1.78834226	     -0.08062959	      0.81336917	      0.14096546	     21.92001313	     -9.24978887	     -7.18700427	     38.62080320	      0.67406018	     16.39223029	    -15.27421602	     -7.49999987	     19.80356613	     -7.92605383	     -8.22283775	     35.47367905	      0.61913250	     13.66583032	    -11.94670991	     -7.49999987	    -14.14340046	     -0.53932544	      4.79956708	     95.40345286	      0.65675204	     68.84045510	    112.59194497	    101.41384695	     84.51951005	     17.08363596	     64.89117124	    140.19844903	     93.23004794
      2.58333330	     -1.80107178	      1.59088550	      2.35113854	     -0.08420597	      0.80858796	      0.14000816	     22.35888265	     -9.74048117	     -8.03288233	     41.60112946	      0.72607668	     18.07524427	    -14.34763272	     -7.49999987	     20.78025445	     -8.52619175	     -7.79303701	     38.78104903	      0.67685699	     15.34461278	    -11.69007571	     -7.49999987	    -15.98093233	     -0.19460009	      3.85084345	     96.15174898	      0.75753291	     68.93979143	    112.64163399	    106.40138863	     85.24675198	     15.98281804	     64.85332302	    138.87839499	     97.31900064
      2.60000000	     -0.86256251	      1.46789923	      2.47520209	     -0.08634475	      0.80377147	      0.14004523	     22.91154254	    -10.12329450	     -8.47537355	     44.19084448	      0.77127574	     19.07512490	    -14.01680941	     -7.49999987	     21.83514851	     -9.18402172	     -7.75396342	     42.00325458	      0.73309509	     16.31876860	    -12.17015988	     -7.49999987	    -18.12382614	     -0.10545761	      3.11094805	     97.19611062	      0.95414530	     69.42758504	    112.37711547	    102.12591019	     86.10295531	     14.48818196	     64.55442354	    137.42882851	     93.58270856
      2.61666670	      0.33594714	      1.30312639	      2.54130466	     -0.08856986	      0.79525636	      0.14025221	     23.01634345	    -10.48651828	     -8.99282712	     46.92756119	      0.81904045	     20.98123727	    -13.01767959	     -7.49999987	     22.60478572	     -9.89121575	     -7.45316104	     45.40821374	      0.79252284	     17.86278312	    -12.24217397	     -7.49999987	    -20.32801948	      0.05070667	      2.30166242	     98.28730378	      1.84244741	     70.06972936	    111.73484167	    105.57207066	     86.74491653	     13.79646340	     64.10415983	    137.53080703	     96.55353288
      2.63333330	      1.16818217	      1.23394576	      2.42570152	     -0.09106668	      0.78390186	      0.14058205	     23.88019866	    -10.96650006	     -9.11213464	     50.04540604	      0.87345711	     22.51214142	    -13.00674874	     -7.49999987	     23.64908906	    -10.45159646	     -7.18012552	     48.74727493	      0.85080045	     19.83788117	    -12.17758195	     -7.49999987	    -22.34298048	      0.00865328	      1.75546057	     99.73918399	      2.28102645	     69.86305621	    111.93004256	    105.58018057	     88.26310778	     13.06540959	     63.39115706	    136.85110083	     96.56221238
